<svg xmlns:dc="http://purl.org/dc/elements/1.1/" xmlns:cc="http://creativecommons.org/ns#" xmlns:rdf="http://www.w3.org/1999/02/22-rdf-syntax-ns#" xmlns:svg="http://www.w3.org/2000/svg" xmlns="http://www.w3.org/2000/svg" height="6633.33349609375" width="6633.33349609375" xml:space="preserve" version="1.1" style=""><rect id="backgroundrect" width="100%" height="100%" x="0" y="0" fill="none" stroke="none"/><metadata id="metadata8"><rdf:RDF><cc:Work rdf:about=""><dc:format>image/svg+xml</dc:format><dc:type rdf:resource="http://purl.org/dc/dcmitype/StillImage"/></cc:Work></rdf:RDF></metadata><defs id="defs6"><radialGradient id="radialGradient24" spreadMethod="pad" gradientTransform="matrix(37768.7,0,0,-37768.7,24875,24875)" gradientUnits="userSpaceOnUse" r="1" cy="0" cx="0" fy="0" fx="0"><stop id="stop16" offset="0" style="stop-opacity:1;stop-color:#ffffff"/><stop id="stop18" offset="0.606061" style="stop-opacity:1;stop-color:#ffffff"/><stop id="stop20" offset="0.77980056" style="stop-opacity:1;stop-color:#ffffff"/><stop id="stop22" offset="1" style="stop-opacity:1;stop-color:#656263"/></radialGradient><clipPath id="clipPath50" clipPathUnits="userSpaceOnUse"><path id="path48" d="m 32833.3,7061 c 0,-879.8 -3563,-1593 -7958.3,-1593 -4395.2,0 -7958.3,713.2 -7958.3,1593 0,879.9 3563.1,1593.1 7958.3,1593.1 4395.3,0 7958.3,-713.2 7958.3,-1593.1 z"/></clipPath><radialGradient id="radialGradient62" spreadMethod="pad" gradientTransform="matrix(7430.67,0,0,-1339.43,24875,7061)" gradientUnits="userSpaceOnUse" r="1" cy="0" cx="0" fy="0" fx="0"><stop id="stop54" offset="0" style="stop-opacity:1;stop-color:#7b7979"/><stop id="stop56" offset="0.44717469" style="stop-opacity:1;stop-color:#ffffff"/><stop id="stop58" offset="0.8" style="stop-opacity:1;stop-color:#ffffff"/><stop id="stop60" offset="1" style="stop-opacity:1;stop-color:#ffffff"/></radialGradient></defs><g class="currentLayer" style=""><title>Layer 1</title><g id="g28" stroke-width="0" class="selected" fill="#ffffff" fill-opacity="1"><path id="path30" style="fill-rule: nonzero; stroke: none;" d="m4041.483116340431,2781.144884370008 c-2.4184652878982886,-30.70028288990887 -6.800155338914012,-61.03068285343329 -12.689829628266317,-90.93429482497567 c-5.832769223754696,-29.90361197154237 -13.344237882638794,-59.295078352706284 -21.965355320676224,-88.25975674188814 c-17.32759247447127,-57.872451712766114 -39.46366299194031,-113.78167866241478 -64.87177478127175,-167.78458591454364 c-25.379659256532634,-54.03135978492765 -54.03135978492765,-106.24175747073188 -85.12997813401977,-156.68809812301032 c-15.591987973744262,-25.237396592538616 -31.63921647226938,-50.10491025869278 -48.369305757965776,-74.4887308672673 c-16.7585418184952,-24.355368075775708 -33.88696656337485,-48.42621082356338 -51.69825209542577,-71.9564554481738 c-17.782832999252125,-23.53024462461041 -36.04935905608391,-46.69060632283637 -54.91338830169056,-69.33882243068388 c-9.389335823605121,-11.324108053923752 -18.977839376801867,-22.53440597665229 -28.70860559399263,-33.57398870258801 c-9.730766217190762,-11.039582725935718 -19.603795098375542,-21.965355320676224 -29.78980184034716,-32.54969752183109 c17.356045007270072,23.729412354202037 33.830061497777244,47.99942283158133 49.99110012749757,72.44014850575346 c8.080519314860165,12.206136570686658 15.99032343292751,24.554535805367333 23.84322248539725,36.90293504004801 c7.852899052469739,12.348399234680674 15.56353544094546,24.782156067757757 23.13190916542716,37.27281796643245 c15.16519998176221,25.00977633014819 29.988969569938785,50.161815324290394 44.15833090374287,75.68373724481704 c14.169361333804092,25.493469387727842 27.997292274022545,51.1292014394497 41.08545736147211,77.10636388475722 c26.233235240496732,51.9258723578162 50.2471729226868,104.79067829799291 71.10287946420969,158.59441782053014 c10.413627004362045,26.94454856046682 20.115940688754005,54.059812317726454 28.737058126791432,81.43114887017532 c8.70647503643384,27.342884019650064 16.41711142490956,54.91338830169056 22.989646501433146,82.65460778052388 c13.14507015304717,55.425533892069026 21.595472394291782,111.61928616970573 23.359529427817588,167.41470298815918 c0.426787991982051,13.742573341822041 0.284525327988034,27.45669415084528 -0.39833545918324753,41.14236242706971 c-0.6544082543724781,13.685668276224435 -1.877867164721024,27.342884019650064 -3.6134716654480314,40.94319469747809 c-3.499661534252818,27.172168822857245 -9.076357962818284,54.088264850525256 -16.616279154501186,80.4353102222172 c-7.568373724481704,26.318592838893142 -17.07151967928204,52.06813502181022 -28.36717520040699,76.992553753562 c-5.662054026961876,12.462209365875887 -11.750896045905803,24.725251002160153 -18.294978589630585,36.703767310456385 c-6.515630010925978,12.035421373893836 -13.48650054663281,23.814769952598446 -20.82725400872409,35.33804573611382 c-14.766864522578963,23.018099034231952 -31.12707088189092,44.95500182210937 -48.909903881143045,65.66844569963824 c-17.782832999252125,20.713443877528874 -37.073650236840834,40.08961871351399 -57.53102131918047,58.10007197515654 c-40.97164723027689,35.9924539904863 -86.95094023314319,66.23749635561431 -136.14536944227427,89.85309857862113 c-49.19442920913108,23.75786488700084 -101.63244715732573,40.829384566282876 -155.49309174546056,51.66979956262697 c-26.94454856046682,5.377528698973842 -54.287432580116885,9.190168094013497 -81.80103179655977,11.580180849112985 c-13.771025874620845,1.1665538447509392 -27.570504282040496,1.9632247631174347 -41.42688775505775,2.4184652878982886 c-6.9424180029080285,0.1991677295916238 -13.856383473017257,0.34143039358564076 -20.770348943126482,0.3698829263844442 h-10.47053206995965 l-10.100649143575206,-0.142262663994017 c-27.257526421253655,-0.6259557215736749 -54.37279017851329,-3.0444210094719635 -81.06126594379087,-7.426111060487687 c-26.688475765277587,-4.35323751821692 -52.978616071371924,-10.584342201154865 -78.58589559029498,-18.864029245606652 c-25.578826986124255,-8.308139577250593 -50.503245717876034,-18.49414631922221 -74.4318258016697,-30.671830357110064 c-11.97851630829623,-6.088842018943927 -23.70095982140323,-12.661377095467513 -35.110425473723396,-19.717605229570754 c-11.46637071791777,-7.027775601304439 -22.648216107847503,-14.510791727389734 -33.5170836369904,-22.420595845457076 c-21.70928252548699,-15.876513301732295 -42.16665360782663,-33.5170836369904 -61.25830311582372,-52.637185677786285 c-19.063196975198277,-19.120102040795885 -36.61840971205997,-39.86199845112356 -52.69409074338389,-61.74199617340337 c-64.10071114242417,-87.69070608591207 -102.69941713728086,-195.32663766378533 -108.72566358406742,-305.01115160317244 l-0.133726904154376,-2.4753703534958955 l-0.09389335823605123,-0.6828607871712815 c-10.001065278779395,-71.50121492339294 -8.652415224116114,-145.27863247069016 0.987302888118478,-218.4869993620113 c9.639718112234592,-73.26527195691875 27.331503006530546,-146.04685085625783 50.3780545735613,-217.40580311565677 c23.10345663262836,-71.38740479219773 51.49908436583415,-141.4944456084493 83.8496141580736,-209.95123952237026 c8.052066782061361,-17.128424744879645 16.474016490507168,-34.11458682576528 25.03822886294699,-51.043843841053295 c8.53575983964102,-16.957709548086825 17.384497540068878,-33.74470389938083 26.46085550288716,-50.44634065227843 c9.019452897220678,-16.730089285696398 18.351883655228193,-33.31791590739878 27.91193467562613,-49.791932397905946 c4.751572977400167,-8.251234511652985 9.616956085995549,-16.445563957708362 14.539244260188537,-24.58298833816614 c4.922288174192988,-8.165876913256575 9.929933946782386,-16.303301293714345 15.0798423833658,-24.326915542976906 c-12.490661898674691,14.453886661792126 -24.298463010178104,29.505276512359124 -35.93554892488869,44.69892902692014 c-11.580180849112985,15.250557580158622 -22.79047877184152,30.75718795550647 -33.830061497777244,46.40608099484834 c-10.982677660338112,15.734250637738278 -21.68082999268819,31.63921647226938 -32.15136206264784,47.7148975035933 c-10.47053206995965,16.07568103132392 -20.542728680736055,32.407434857837075 -30.47266262751844,48.85299881554543 c-39.52056805753792,65.92451849482747 -74.81593499445353,134.6942902695353 -104.29560422729374,206.39467292251985 c-29.439835686921874,71.64347758738695 -53.16071228128427,146.24601858584947 -68.10682776049569,223.46619260180188 c-3.7471985696024075,19.290817237588705 -6.919655976668986,38.72389713917142 -9.440550382642968,58.32769223754697 c-2.5180491526941005,19.575342565576737 -4.4926549289310564,39.29294779514749 -5.679125546641158,59.095910623114655 c-1.1864706177101016,19.83141536076597 -1.707151967928204,39.748188319928346 -1.4795317055377768,59.693413811889535 c0.2646085550288716,19.063196975198277 1.2519114431473497,38.18329901599416 2.9590634110755536,57.303401056790044 c0.6259557215736749,62.31104682937944 10.840414996344094,124.45137846196606 29.732896774749552,183.94562454426398 c18.960767857122583,59.63650874629192 46.70767784251566,116.74074207349035 82.60054796820614,168.58125683291013 c35.86726284617156,51.84051475941979 79.94023615151802,98.44576348385976 130.6995546645833,136.77132516384793 c50.61705584907125,38.41091927838459 107.89200437306248,68.34298378272575 168.2113739065257,88.31666180748574 c30.1596847667316,10.015291545178798 61.05913538623209,17.640570335258108 92.24311133372062,22.84738383743913 c18.977839376801867,3.1582311406671773 38.04103635200014,5.462886297370252 57.132685859997224,6.970870535706832 c2.560727951892306,31.895289267458608 4.6946679118025605,63.819031067716026 6.686345207718799,95.74277286797343 c2.446917820697092,39.179137663952275 4.467047649412133,78.38672786070336 6.401819879730764,117.59431805745444 c3.755734329442048,78.38672786070336 6.544082543724782,156.79621774764578 8.79183263483025,235.19432662146866 c0.9673861151593155,39.201899690191325 2.1054874271114516,78.40095412710276 2.731443148685126,117.6000085640142 l1.1096487791533325,58.788623268887584 l0.7966709183664951,58.8000042820071 c0.9104810495617088,78.38388260742349 1.2519114431473497,156.78483673452624 1.1096487791533325,235.1715645952296 c-0.34143039358564076,156.77345572140672 -2.7598956814839295,313.54691144281344 -8.194329446055379,470.3175219109403 c-2.6745380830875196,78.37534684758384 -6.003484420547517,156.7620747082872 -10.356721938764437,235.13457630259114 l-3.4712090014540142,58.7715517492083 c-1.3088165087449561,19.600949845095663 -2.4753703534958955,39.18767342379192 -3.9264495262348693,58.788623268887584 c-2.5322754190935024,36.200157479917564 -5.349076166175039,72.40031495983513 -8.763380102031446,108.58624617335329 c-35.02506787532698,0.3072873542270767 -70.05013575065396,0.9332430758007515 -105.07520362598095,1.9717605229570754 c-27.115263757259637,0.802361424926256 -54.258980047318076,1.8551051384819814 -81.37424380457772,3.200909939865382 c-27.115263757259637,1.2945902423455546 -54.230527514519274,3.0387305029122027 -81.2888862061813,5.172670462822458 c-54.14516991612287,4.26787991982051 -108.23343476664812,9.86733837462502 -161.9831144768676,18.24091877731286 c-26.853500455510645,4.319094478858355 -53.62733381918464,9.321049744887993 -80.14793964094929,15.572071200785098 c-13.253189777682623,3.1354691144281346 -26.452319743047518,6.586761342922986 -39.52056805753792,10.587187454434744 c-6.5327015306052605,2.000213055755879 -13.039795781691597,4.145534028785655 -19.478603954060805,6.521320517485739 c-3.2265172193843052,1.1864706177101016 -6.427427159249688,2.4383820608574513 -9.614110832715667,3.7728058491213305 c-1.599032343292751,0.6657892674919995 -3.1866836734659802,1.3600310677828025 -4.77148975035933,2.1054874271114516 c-1.6132586096921526,0.7483016126085293 -3.09563556850981,1.4396981596194518 -4.8397758290764585,2.42700104773793 l3.491125774413177,6.094532525503689 c1.3998646137011272,-0.3072873542270767 3.146850127547656,-0.6800155338914012 4.7601087372398085,-0.9616956085995548 c1.6530921556104776,-0.293061087827675 3.3204105776203567,-0.5576696428565466 4.987728999630236,-0.7995161716463755 c3.3204105776203567,-0.5206813502181022 6.652202168360234,-0.987302888118478 10.012446291898915,-1.3742573341822042 c6.69488096755844,-0.7852899052469738 13.372690415437598,-1.530746264575623 20.107404928914363,-2.025820335274802 c13.401142948236402,-1.1864706177101016 26.839274189111244,-1.866486151601503 40.24041713734765,-2.520894405973981 c13.426750227755322,-0.4922288174192988 26.79944064319292,-1.0783509930746489 40.21196460454885,-1.2917449890656743 l20.078952396115557,-0.401180712463128 c6.69488096755844,-0.11950063775497428 13.38976193511688,-0.18494146319222213 20.09033340923508,-0.1991677295916238 c53.547666727347995,-0.452395271500974 106.98152332350078,-0.07966709183664952 160.44383245245237,0.6003484420547517 l160.44383245245237,2.0144393221552805 c53.51921419454919,0.611729455174273 107.03842838909839,1.1068035258734523 160.7568103132392,1.305971255465076 c53.576119260146804,0.22477500911054685 107.20914358589121,0.10527437135557259 160.69990524764157,-0.133726904154376 l160.44383245245237,-0.9474693422001532 c53.46230912895159,-0.3186683673465981 106.89616572510437,-0.3471209001454015 160.44383245245237,0.426787991982051 c13.401142948236402,0.06828607871712816 26.745380830875195,0.4922288174192988 40.1465237791116,0.8393497175647003 c13.429595481035205,0.267453808308752 26.773833363673997,0.9616956085995548 40.23188137750801,1.5222105047359817 c13.372690415437598,0.719849079809726 26.830738429271605,1.4795317055377768 40.23188137750801,2.731443148685126 c6.714797740517603,0.5462886297370252 13.372690415437598,1.305971255465076 20.087488155955196,2.133939959910255 c3.3573988702588013,0.41256172558264925 6.686345207718799,0.8934095298824267 10.015291545178798,1.4283171464999305 c3.300493804661194,0.5036098305388201 6.714797740517603,1.1068035258734523 9.759218749989564,1.8380336188026996 l3.4712090014540142,-6.120139805022611 c-3.272041271862391,-1.8266526056831782 -6.344914814133158,-3.1866836734659802 -9.560051020397943,-4.572322020767706 c-3.1866836734659802,-1.3600310677828025 -6.3733673469319605,-2.626168777329554 -9.588503553196746,-3.841091927838459 c-6.430272412529568,-2.4127747813385283 -12.917449890656743,-4.60077455356651 -19.43307990158272,-6.652202168360234 c-13.031260021851956,-4.080093203348407 -26.204782707697927,-7.6138977769597895 -39.43521045914151,-10.840414996344094 c-26.489308035685962,-6.427427159249688 -53.23468886656116,-11.600097622072147 -80.03697476303397,-16.0927525510032 c-53.71838192414082,-8.720701302833241 -107.74974170906846,-14.66728065778315 -161.86645909239252,-19.293662490868584 c-13.543405612230417,-1.146637071791777 -27.086811224460835,-2.1993807853475027 -40.630216836691254,-3.172457407066579 c-13.543405612230417,-0.9474693422001532 -27.086811224460835,-1.7612117802459304 -40.658669369490056,-2.520894405973981 c-27.086811224460835,-1.5193652514561014 -54.230527514519274,-2.745669415084528 -81.34579127177891,-3.7329723032030055 c-34.99661534252818,-1.2547566964272299 -70.02168321785516,-2.119713693510853 -105.04675109318214,-2.6403950437289554 c-3.1866836734659802,-36.21153849303708 -5.7474116253582865,-72.42592223935405 -8.052066782061361,-108.640305985671 c-1.3372690415437598,-19.59810459181578 -2.361560222300682,-39.199054436911446 -3.5565665998504246,-58.8000042820071 l-3.0728735422707674,-58.81138529512662 c-3.869544460637262,-78.40095412710276 -6.686345207718799,-156.80190825420553 -8.848737700427858,-235.2000171280284 c-4.410142583814527,-156.7876819878061 -5.832769223754696,-313.57251872233235 -5.121455903784612,-470.34597444373907 c0.3129778607868374,-78.40095412710276 1.1950063775497428,-156.7876819878061 2.6176330174899123,-235.17440984850947 l1.1665538447509392,-58.785778015607704 l1.4795317055377768,-58.785778015607704 c0.9104810495617088,-39.18767342379192 2.276202623904272,-78.37250159430396 3.499661534252818,-117.5744012844953 c2.7598956814839295,-78.37250159430396 6.060389486145124,-156.7649199615671 10.328269405965633,-235.12319528947165 c2.162392492709058,-39.207590196751084 4.467047649412133,-78.38672786070336 7.170038265298456,-117.56586552465563 c2.1908450255078615,-32.009099398653824 4.552405247808544,-63.989746264508845 7.340753462091277,-95.99884566316265 c5.548243895766663,-0.39833545918324753 11.12494032433213,-0.7966709183664951 16.701636752897596,-1.3088165087449561 c30.927903152299294,-2.6745380830875196 61.798901239000976,-7.170038265298456 92.32846893211703,-13.514953079431614 c61.087587919030895,-12.632924562668709 120.89481186211563,-32.919580448215534 177.08856413975235,-60.88842018943927 c28.05419733962015,-14.027098669810075 55.197913629678595,-29.988969569938785 81.11817100938849,-47.7148975035933 c25.920257379709895,-17.75438046645332 50.56015078347364,-37.386628097627664 73.72051248169961,-58.583765032736196 c23.16036169822597,-21.19713693510853 44.727381559718935,-44.15833090374287 64.58724945328372,-68.45679391392098 c19.859867893564772,-24.298463010178104 37.89877368800612,-50.04800519309518 53.97445471933004,-76.9641012207632 c8.052066782061361,-13.458048013834006 15.620440506543066,-27.172168822857245 22.67666864064631,-41.170814959868515 c7.027775601304439,-14.027098669810075 13.514953079431614,-28.28181760201058 19.489984967180327,-42.7357042638027 c11.950063775497426,-28.96467838918186 21.737735058285796,-58.78293276232782 29.192298651572283,-89.17023779144985 c7.45456359328649,-30.415757561920834 12.576019497071103,-61.37211324701893 15.193652514561014,-92.55608919450746 c1.3088165087449561,-15.56353544094546 1.9916772959162379,-31.21242848028733 2.077034894312648,-46.83286898683039 c0.0284525327988034,-15.64889303934187 -0.569050655976068,-31.29778607868374 -1.792509566324614,-46.86132151962919 " stroke-width="0" fill="#ffffff" fill-opacity="1"/></g><g id="g32" stroke-width="0" class=""><path id="path34" style="fill:#ed1c24;fill-opacity:1;fill-rule:nonzero;stroke:none" d="m2427.960616949418,582.0239826493616 c59.34645660485263,-5.835041136624413 118.85272643828796,-6.727021947318591 177.78664191819453,-2.3786154951844742 c58.94506524004024,4.348406452134117 117.33264247339663,13.90003429998427 174.41198118440155,28.95221048044852 c282.5089056804022,72.73360193868774 518.5084452565255,290.07959281116905 613.1736253781563,571.3880409838454 c69.33292509791619,204.0034445791809 42.666415444871504,420.0114642356209 -60.000575866028356,609.3343913054601 c-83.33330723910356,155.8364808016953 -168.2238643102107,308.03070662638936 -236.13333669772743,466.65462746150394 c-13.572974669396405,31.739650513867826 -26.465813970638496,63.66513036329694 -38.46667246118641,95.92510301673637 c-24.06489895518667,64.11112076864403 -46.73236130695246,129.44871515199256 -60.0637578401192,197.42508610031135 c0,-2.6759424320825334 0,-3.976747781011542 1.3305380426188151,-6.6526902130940755 c-34.664604255602484,174.64240956049755 -57.33206660736827,371.9931639265844 61.334830495358396,525.3283818716247 c65.3338777966373,86.66708551907304 158.6648032889381,141.33435945449244 262.666049229168,157.33426524631926 c278.6659550209948,41.33216081554146 563.9957500152174,-185.335029528694 581.3522099566416,-466.65462746150394 c23.971984287406027,190.65346511245804 -86.67080210578426,362.65338152127407 -246.6847263708973,473.31846743473176 c-186.66556757131283,126.66870829199569 -417.3355218035384,126.66870829199569 -588.7482175119808,-1.7988279682332584 c-21.251442814788785,-14.587602841561031 -41.63692092586197,-30.892268743708357 -60.66584488733776,-48.89169818617462 c-19.025207374764566,-18.014295789311163 -36.58607958530619,-37.80140343987701 -52.37413993459313,-58.92276571977289 c-15.825226216399203,-21.10649593305098 -29.706677582827346,-43.640161163212646 -41.6406375125732,-66.99890864326643 c-11.91909358290095,-23.373613826898683 -21.957594289921676,-47.5462937967109 -30.011437693147855,-72.14638123831408 c-8.10587561718334,-24.5889376814695 -14.412923266133422,-49.51980134037177 -19.21475329703708,-74.52128014678732 c-4.74608123023527,-25.012628566549232 -7.946062388600633,-50.06242300021072 -9.956735799373758,-75.0378856996477 c-2.0404061044629316,-24.975462699436978 -2.761423926440725,-49.839427797537176 -2.523562376922278,-74.5175635600761 c0.2564444830745762,-24.715301629651176 1.4011531901321042,-49.244773923741064 3.4415592945950357,-73.58841688226967 c4.106828315904443,-48.650120049944945 11.18692600078948,-96.59408862475699 20.545291339655893,-143.7204081230994 l1.7876782080995814,-8.882642239829519 l0.8919808106941777,-4.385572319246374 l0.4274074717909601,-2.118454425398672 c0.4422738186358631,-1.8954592227251275 -0.6652690213094076,2.7874400334193052 1.0555106259881102,-4.534235787695403 l0.2936103501868335,-1.0778101462554648 l4.74608123023527,-17.35645994142421 c71.94568555590789,-275.51057290316413 209.27728112241024,-515.4905768470102 365.27729173939946,-763.4984080871039 c241.33655809344347,-382.6597677878022 32.00352817036485,-866.6708551907304 -336.98291710683793,-1048.9322675092408 c-62.7359836854905,-33.8581049392665 -129.73489232875693,-60.61752926009183 -199.11984964063026,-79.01463348065924 c-69.70830035575,-18.508601821904186 -141.8026493801069,-28.654883543550458 -214.70721430751104,-29.286703284458834 c-24.280460984437763,-1.0406442791432073 -48.72073519745823,-1.5609664187148111 -73.22790797128077,-0.7433173422451481 " stroke-width="0"/></g><g id="g36" stroke-width="0" class=""><path id="path38" style="fill:#ed1c24;fill-opacity:1;fill-rule:nonzero;stroke:none" d="m3560.7562318742052,3045.6282541202977 c30.12080475906252,-18.32414493175344 57.98713675112819,-38.247392640097665 83.67764037504574,-59.87460232349765 c25.690503623917554,-21.60099488378374 48.995460482757046,-44.98459614147196 68.94492299071752,-70.15080377306467 c19.897032908727983,-25.166207631592705 36.35992706772821,-52.14123643670614 48.549808889280925,-80.63672361956164 c12.21609662116896,-28.469272383239247 20.132966105274164,-58.40657354498807 23.9865416488618,-89.23517789368913 c3.8273607439713904,-30.828604348701063 3.6962867458901787,-62.49608228512189 0.4456515934761209,-94.42570821770512 c-3.1982055531815727,-31.929625932583242 -9.48975746107975,-64.09518506171267 -17.642560141731135,-96.28695899045834 c-8.231447079500114,-32.16555912912943 -18.32414493175344,-64.38354785749134 -29.57029396712143,-96.70639578431822 c-5.583752318259632,-16.14831656360532 -11.403437833065444,-32.34906272644312 -17.406626945184957,-48.628453288129656 c-6.003189112119509,-16.305605361302774 -12.189881821552717,-32.63742552222179 -18.00956733635853,-49.362467677384444 c12.478244617331383,12.583103815796353 24.03897124809428,25.90022202084749 35.049187086916085,39.715421418607235 c11.010215838821809,13.815199397759747 21.46992088570253,28.102265188611856 31.274255942177184,42.88741217217257 c19.63488491256556,29.57029396712143 36.9104378596693,61.00183870699607 51.01400005320771,94.26841942000767 c14.10356219353841,33.240365913395365 25.00891883389525,68.36819739916018 31.35290034102591,104.91162806420209 c6.317766707514419,36.51721586542567 7.943084283721448,74.55489010859338 3.145775953949088,112.38284595483117 c-4.69244913130739,37.74931144738906 -15.991027765907864,75.13161570015073 -33.554943508790274,109.07978120318464 c-17.511486143649922,34.000595102266395 -41.10480579826809,64.3573330578751 -68.36819739916018,89.65461468754901 c-27.289606400508337,25.40214082813889 -58.14442554882565,45.82346972919172 -90.67699187258246,61.47370510008843 c-16.305605361302774,7.812010285640236 -33.05686231608167,14.391924989317078 -50.12269686625547,19.713529311414288 c-8.493595075662538,2.6739095608567247 -17.14447894902253,4.928382327853572 -25.795362822382526,6.920707098687994 c-8.72952827220872,1.8612507727532104 -17.45905654441744,3.538997948192724 -26.29344401509113,4.299227137063753 " stroke-width="0"/></g><g id="g40" stroke-width="0" class=""><path id="path42" style="fill:#ed1c24;fill-opacity:1;fill-rule:nonzero;stroke:none" d="m3712.357960634253,2684.98574062802 c-2.672379131349984,-27.99383288087409 -7.355657411042531,-54.84992019097542 -13.943998041796453,-80.83285392350695 c-6.588340630753921,-25.90355613457064 -15.266958007811295,-50.7222850970091 -26.40628092165628,-73.74178850566739 c-11.165782113165282,-23.045962607978574 -24.818728962438467,-44.18686286489578 -41.011758946460155,-62.81413918638478 c-16.21948918334198,-18.627276321489 -34.95260230211217,-34.6880103089092 -55.72307376854521,-48.129283563620014 c-20.79693066575334,-13.467732454031108 -43.57830128052895,-24.342463374673123 -67.60325426335851,-33.10045834969139 c-24.02495298282956,-8.757994975018265 -49.26702913439277,-15.425713203733077 -75.1970444682837,-20.71755306779245 c-25.930015333890935,-5.238921465418781 -52.54796985010959,-9.154882964822718 -79.61573075477328,-12.329986883258343 c-13.547110051992,-1.6404703578584061 -27.200056901265185,-2.989889523193547 -40.95884054781956,-4.365767887848984 c-13.758783646554374,-1.3494191653351404 -27.623404090389936,-2.5665423340687963 -41.64677973014728,-4.180553492606906 c13.335436457429623,-4.6039006817316555 26.90900570874192,-8.255270187932624 40.64133015597599,-11.377455707727655 c13.732324447234076,-3.1486447191153277 27.623404090389936,-5.609350255902937 41.62032053082698,-7.567331005604906 c28.020292080194388,-3.8365839014430465 56.569768146794715,-5.344758262699968 85.33091780795742,-3.915961499403937 c28.7346904618424,1.4023375639757343 57.70751371756748,5.768105451824718 86.15115298688663,13.891079643155859 c28.364261671358246,8.12297419133114 56.25225775495115,20.13545068274592 81.70600750107674,36.69890945725176 c25.480208945445888,16.457621977224655 48.367416357502684,37.51914463618097 66.62426388850753,61.914526409494684 c18.336225128965733,24.342463374673123 31.936253579598326,51.78065306982098 40.6148709566557,80.14491474117922 c8.757994975018265,28.364261671358246 12.726874873062796,57.60167692028629 12.647497275101903,86.36282658144899 c-0.07937759796089063,14.393804430241499 -1.058367972811875,28.681772063201812 -3.2280223170762183,42.78452530092004 c-2.1431951449440465,14.04983483907764 -5.133084668137593,27.99383288087409 -10.001577343072217,41.27635093966312 " stroke-width="0"/></g><g id="g44" stroke-width="0" class=""><g clip-path="url(#clipPath50)" id="g46" stroke-width="0"><g id="g52" stroke-width="0"><path id="path64" style="fill:url(#radialGradient62);fill-opacity:1;fill-rule:nonzero;stroke:none" d="m4377.766768432053,5691.869041857092 c0,117.30534916859312 -475.0548380369703,212.39957491698192 -1061.1115782452882,212.39957491698192 c-586.029882743481,0 -1061.0981495128697,-95.09422574838878 -1061.0981495128697,-212.39957491698192 c0,-117.32146364749532 475.0682667693888,-212.4130036494004 1061.0981495128697,-212.4130036494004 c586.0567402083179,0 1061.1115782452882,95.09154000190507 1061.1115782452882,212.4130036494004 " stroke-width="0"/></g></g></g></g></svg>